<?xml version="1.0" encoding="UTF-8"?>
<svg xmlns="http://www.w3.org/2000/svg" style="display: none;">
<symbol id="school-flag" viewBox="0 0 576 512">
<path d="M304 64h80V32H304V64zM272 16c0-8.8 7.2-16 16-16H400c8.8 0 16 7.2 16 16V80c0 8.8-7.2 16-16 16H315.5l89.6 64H512c35.3 0 64 28.7 64 64V448c0 35.3-28.7 64-64 64H352 320 256 224 64c-35.3 0-64-28.7-64-64V224c0-35.3 28.7-64 64-64H170.9L272 87.8V64 16zm48 400c0-17.7-14.3-32-32-32s-32 14.3-32 32v64h64V416zm32 64H512c17.7 0 32-14.3 32-32V224c0-17.7-14.3-32-32-32H400c-3.3 0-6.6-1-9.3-3L288 115.7 185.3 189c-2.7 1.9-6 3-9.3 3H64c-17.7 0-32 14.3-32 32V448c0 17.7 14.3 32 32 32H224V416c0-35.3 28.7-64 64-64s64 28.7 64 64v64zM256 240a32 32 0 1 0 64 0 32 32 0 1 0 -64 0zm32 64a64 64 0 1 1 0-128 64 64 0 1 1 0 128zM64 256c0-17.7 14.3-32 32-32h32c17.7 0 32 14.3 32 32v32c0 17.7-14.3 32-32 32H96c-17.7 0-32-14.3-32-32V256zm64 0H96v32h32V256zm320-32h32c17.7 0 32 14.3 32 32v32c0 17.7-14.3 32-32 32H448c-17.7 0-32-14.3-32-32V256c0-17.7 14.3-32 32-32zm0 32v32h32V256H448zM64 384c0-17.7 14.3-32 32-32h32c17.7 0 32 14.3 32 32v32c0 17.7-14.3 32-32 32H96c-17.7 0-32-14.3-32-32V384zm64 0H96v32h32V384zm320-32h32c17.7 0 32 14.3 32 32v32c0 17.7-14.3 32-32 32H448c-17.7 0-32-14.3-32-32V384c0-17.7 14.3-32 32-32zm0 32v32h32V384H448z"/>
</symbol>
<symbol id="building-columns" viewBox="0 0 512 512">
<path d="M263.9 2.1C259-.7 253-.7 248.1 2.1L15.8 133.7C6 139.3 0 149.6 0 160.8C0 178 14 192 31.2 192H256 480.8c17.2 0 31.2-14 31.2-31.2c0-11.2-6-21.6-15.8-27.1L263.9 2.1zM306.6 160c3.5-7.3 5.4-15.4 5.4-24c0-30.9-25.1-56-56-56s-56 25.1-56 56c0 8.6 1.9 16.7 5.4 24H34.3L256 34.4 477.7 160H306.6zM256 112a24 24 0 1 1 0 48 24 24 0 1 1 0-48zM64 352c-8.8 0-16 7.2-16 16s7.2 16 16 16H448c8.8 0 16-7.2 16-16s-7.2-16-16-16V224H416V352H336V224H304V352H208V224H176V352H96V224H64V352zM40 416c-8.8 0-16 7.2-16 16s7.2 16 16 16H472c8.8 0 16-7.2 16-16s-7.2-16-16-16H40zM16 480c-8.8 0-16 7.2-16 16s7.2 16 16 16H496c8.8 0 16-7.2 16-16s-7.2-16-16-16H16z"/>
</symbol>
<symbol id="school" viewBox="0 0 640 512">
<path d="M328.9 2.7c-5.4-3.6-12.4-3.6-17.8 0L171.2 96H64C28.7 96 0 124.7 0 160V448c0 35.3 28.7 64 64 64H256h32 64 32H576c35.3 0 64-28.7 64-64V160c0-35.3-28.7-64-64-64H468.8L328.9 2.7zM384 384c0-35.3-28.7-64-64-64s-64 28.7-64 64v96H64c-17.7 0-32-14.3-32-32V160c0-17.7 14.3-32 32-32H176c3.2 0 6.2-.9 8.9-2.7L320 35.2l135.1 90.1c2.6 1.8 5.7 2.7 8.9 2.7H576c17.7 0 32 14.3 32 32V448c0 17.7-14.3 32-32 32H384V384zm-32 96H288V384c0-17.7 14.3-32 32-32s32 14.3 32 32v96zM96 192v64c0 17.7 14.3 32 32 32h32c17.7 0 32-14.3 32-32V192c0-17.7-14.3-32-32-32H128c-17.7 0-32 14.3-32 32zm64 0v64H128V192h32zm320-32c-17.7 0-32 14.3-32 32v64c0 17.7 14.3 32 32 32h32c17.7 0 32-14.3 32-32V192c0-17.7-14.3-32-32-32H480zm0 32h32v64H480V192zM96 352v64c0 17.7 14.3 32 32 32h32c17.7 0 32-14.3 32-32V352c0-17.7-14.3-32-32-32H128c-17.7 0-32 14.3-32 32zm64 0v64H128V352h32zm320-32c-17.7 0-32 14.3-32 32v64c0 17.7 14.3 32 32 32h32c17.7 0 32-14.3 32-32V352c0-17.7-14.3-32-32-32H480zm0 32h32v64H480V352zM320 128a64 64 0 1 1 0 128 64 64 0 1 1 0-128zm0 160a96 96 0 1 0 0-192 96 96 0 1 0 0 192zm16-128c0-8.8-7.2-16-16-16s-16 7.2-16 16v32c0 8.8 7.2 16 16 16h24c8.8 0 16-7.2 16-16s-7.2-16-16-16h-8V160z"/>
</symbol>
<symbol id="child-reaching" viewBox="0 0 384 512">
<path d="M224 64a32 32 0 1 0 -64 0 32 32 0 1 0 64 0zm-96 0a64 64 0 1 1 128 0A64 64 0 1 1 128 64zM112 188c-27.8-14.9-51.4-37.4-67.5-65.8L34.1 103.9c-4.4-7.7-1.7-17.5 6-21.8s17.5-1.7 21.8 6l10.4 18.3c24.4 43 70.1 69.6 119.5 69.6c48.9 0 94.1-26 118.7-68.2l11.6-19.9c4.5-7.6 14.2-10.2 21.9-5.8s10.2 14.2 5.8 21.9l-11.6 19.9c-16 27.5-39.1 49.4-66.2 63.9V496c0 8.8-7.2 16-16 16s-16-7.2-16-16V384H144V496c0 8.8-7.2 16-16 16s-16-7.2-16-16V188zm32 13.1V352h96V201c-15.4 4.6-31.6 7-48.1 7c-16.4 0-32.5-2.4-47.9-6.9z"/>
</symbol>
</svg>